<?xml version="1.0" encoding="UTF-8"?>
<svg id="Layer_1" xmlns="http://www.w3.org/2000/svg" version="1.1" xmlns:xlink="http://www.w3.org/1999/xlink" viewBox="0 0 31.9 32">
  <!-- Generator: Adobe Illustrator 29.2.1, SVG Export Plug-In . SVG Version: 2.1.0 Build 116)  -->
  <defs>
    <style>
      .st0 {
        fill: url(#linear-gradient1);
      }

      .st1 {
        fill: url(#linear-gradient);
      }
    </style>
    <linearGradient id="linear-gradient" x1="-603.1" y1="365.1" x2="-602.5" y2="364.4" gradientTransform="translate(19235.4 -10334.4) scale(31.9 28.4)" gradientUnits="userSpaceOnUse">
      <stop offset="0" stop-color="#41d1ff"/>
      <stop offset="1" stop-color="#bd34fe"/>
    </linearGradient>
    <linearGradient id="linear-gradient1" x1="-603.2" y1="365" x2="-602.6" y2="364.3" gradientTransform="translate(19235.4 -10334.4) scale(31.9 28.4)" gradientUnits="userSpaceOnUse">
      <stop offset="0" stop-color="#6aa1ff"/>
      <stop offset="1" stop-color="#bd34fe"/>
    </linearGradient>
  </defs>
  <path class="st1" d="M16.3,30.2s0,0,0,0h0Z"/>
  <path class="st0" d="M31.8,29L16.9,2.2c-.3-.6-1.1-.6-1.4,0L.2,29c-.3.6.2,1.3.9,1.2h15.3c0,0,0,0,0,0h14.7c.7.1,1.2-.6.9-1.2ZM17.6,26.7c-.4.4-.9.7-1.6.7s-1.2-.2-1.6-.6-.6-1-.6-1.6.2-1.2.6-1.6.9-.6,1.6-.6,1.2.2,1.6.6.6,1,.6,1.6-.2,1.2-.6,1.6ZM17.8,17.5c-.3,1.3-.6,2.6-.9,3.8,0,.3-.4.4-.9.4s-1-.1-1.1-.4c-.7-2.5-1.1-3.9-1.1-4.3s0-.8,0-1.4,0-1.1,0-1.4,0-.9,0-1.6,0-1.2,0-1.6,0-.4.2-.4c.2,0,.5,0,1,0s.8,0,1,0,.5,0,1,0,.8,0,1,0,.2.9.2,2.8-.1,2.8-.4,4Z"/>
</svg>